<?xml version="1.0" ?><svg viewBox="0 0 60 60" xmlns="http://www.w3.org/2000/svg"><defs><style>.a{fill:#30b470;}.b{fill:#eff1f4;}.c{fill:#4f5564;}.d{fill:#cfd1d7;}.e{opacity:0.2;}.f{fill:#fdd303;}.g{fill:#fcb115;}.h{fill:#fff;}</style></defs><title/><path class="a" d="M60,30A30.04142,30.04142,0,0,1,35.49,59.49,29.202,29.202,0,0,1,30,60,29.97876,29.97876,0,0,1,1.04,37.8C.93994,37.46.86,37.12.78,36.77l7.97-5.52L12,29,30,40,55.61,14.39c.18005.29.35.59.53.89a29.71933,29.71933,0,0,1,3.84,13.7C59.99,29.32,60,29.66,60,30Z"/><path class="b" d="M55.61,14.39,30,40,12,29,.78,36.77C.7,36.42.62,36.07.55,35.71a29.99074,29.99074,0,0,1,54.51-22.18C55.25,13.81,55.42993,14.1,55.61,14.39Z"/><path class="c" d="M56.14,15.28,30.15,41.26,12.03,30.19,1.04,37.8C.93994,37.46.86,37.12.78,36.77s-.16-.7-.23-1.06L11.97,27.81,29.85,38.74,55.06006,13.53c.18994.28.36987.57.54993.86S55.96,14.98,56.14,15.28Z"/><polygon class="d" points="12 6 12 27 13 27 13 5.29 12 6"/><polygon class="d" points="47 5.29 47 19 46 19 46 4.62 47 5.29"/><polygon class="d" points="30 0 30 36 29 36 29 0.03 30 0"/><path class="e" d="M60,30a29.63484,29.63484,0,0,1-2.07007,10.93L43.5,26.5l7-7,9.48,9.48C59.99,29.32,60,29.66,60,30Z"/><path class="e" d="M49.65,52.65a29.62774,29.62774,0,0,1-14.16,6.84L8,32l7-7L29.5,39.5,33,36l.5.5Z"/><circle class="f" cx="47" cy="23" r="5"/><circle class="g" cx="47" cy="23" r="3"/><circle class="h" cx="47" cy="23" r="1"/><circle class="f" cx="30" cy="40" r="5"/><circle class="g" cx="30" cy="40" r="3"/><circle class="h" cx="30" cy="40" r="1"/><circle class="f" cx="12" cy="29" r="5"/><circle class="g" cx="12" cy="29" r="3"/><circle class="h" cx="12" cy="29" r="1"/></svg>